<svg width="145" height="59" viewBox="0 0 145 59" fill="none" xmlns="http://www.w3.org/2000/svg">
<path d="M58.8415 37.1423V41.5302C58.907 42.3983 58.6381 43.2586 58.0898 43.9347C57.8465 44.1931 57.5512 44.397 57.2234 44.5328C56.8955 44.6686 56.5426 44.7333 56.1879 44.7227C55.8365 44.7324 55.4873 44.6649 55.1649 44.5248C54.8425 44.3848 54.5548 44.1756 54.3222 43.9121C53.7879 43.2381 53.5261 42.3881 53.5886 41.5302V26.9083C53.5886 24.5476 54.4414 23.3672 56.1471 23.3672C56.5056 23.3348 56.8664 23.3938 57.1958 23.5387C57.5253 23.6836 57.8126 23.9097 58.0309 24.1959C58.4683 24.9352 58.6895 25.7824 58.6694 26.6412C59.1676 25.7241 59.8167 24.8975 60.5894 24.1959C61.3492 23.6134 62.2912 23.3197 63.2475 23.3672C64.3699 23.3725 65.4733 23.6573 66.4581 24.1959C67.4965 24.7483 68.0158 25.4789 68.0158 26.3876C68.0242 26.6868 67.9683 26.9843 67.852 27.2601C67.7356 27.5358 67.5613 27.7834 67.3411 27.9861C66.967 28.371 66.4559 28.5924 65.9192 28.6019C65.4404 28.5347 64.97 28.4179 64.5154 28.2532C63.8908 28.0317 63.2353 27.9094 62.5728 27.891C61.8909 27.8604 61.2212 28.0794 60.689 28.5068C60.1466 28.9819 59.7521 29.6027 59.5524 30.2955C59.2571 31.2186 59.0702 32.173 58.9954 33.1393C58.8928 34.2321 58.8415 35.5664 58.8415 37.1423ZM82.9501 41.7566V41.0864C82.3708 41.83 81.705 42.5019 80.9667 43.088C80.2895 43.6174 79.5226 44.0208 78.7026 44.2789C77.7937 44.5599 76.8462 44.6959 75.895 44.6819C74.7068 44.7015 73.5317 44.431 72.4716 43.894C71.5064 43.4034 70.6995 42.6499 70.1441 41.7204C69.489 40.6064 69.1614 39.0034 69.1614 36.9114V26.4963C69.1614 25.4457 69.3984 24.6638 69.8724 24.1506C70.1091 23.8885 70.4006 23.6817 70.7261 23.5447C71.0516 23.4078 71.4033 23.3441 71.7562 23.3582C72.1152 23.343 72.4732 23.406 72.8055 23.5429C73.1378 23.6797 73.4364 23.887 73.6807 24.1506C74.2159 24.8101 74.4784 25.6494 74.4143 26.4963V34.9008C74.3934 35.9358 74.4968 36.9696 74.7222 37.98C74.883 38.7233 75.2651 39.4006 75.818 39.9227C76.4341 40.4104 77.2069 40.6568 77.9916 40.6155C78.8854 40.6122 79.7571 40.3374 80.4913 39.8276C81.2541 39.3264 81.8501 38.609 82.203 37.7672C82.5048 37.0246 82.6558 35.3959 82.6558 32.8812V26.4963C82.5927 25.6502 82.8533 24.8118 83.3848 24.1506C83.6267 23.8889 83.9223 23.6826 84.2514 23.5459C84.5804 23.4091 84.9352 23.3451 85.2913 23.3582C85.6442 23.3438 85.9959 23.4073 86.3215 23.5443C86.6471 23.6812 86.9385 23.8883 87.175 24.1506C87.652 24.6608 87.889 25.4427 87.886 26.4963V41.7114C87.9519 42.5268 87.7041 43.3366 87.1931 43.9755C86.9738 44.2201 86.7038 44.4141 86.402 44.5439C86.1001 44.6737 85.7737 44.7362 85.4452 44.7272C85.1055 44.7384 84.7674 44.6753 84.4546 44.5423C84.1417 44.4093 83.8616 44.2097 83.6339 43.9574C83.1422 43.3333 82.8987 42.5495 82.9501 41.7566ZM92.1109 23.8291H93.3607V22.2532C93.3091 20.9244 93.5184 19.5983 93.9765 18.3499C94.3792 17.3954 95.1377 16.6353 96.0912 16.2306C97.3971 15.7294 98.7919 15.5013 100.189 15.5604C103.254 15.5604 104.787 16.3151 104.79 17.8246C104.797 18.2883 104.623 18.7366 104.306 19.0744C104.165 19.2367 103.991 19.3668 103.796 19.4559C103.6 19.545 103.388 19.5909 103.174 19.5906C102.818 19.5765 102.464 19.5387 102.114 19.4774C101.695 19.4081 101.271 19.3702 100.846 19.3642C99.895 19.3642 99.2882 19.6449 99.0346 20.2065C98.7291 20.9634 98.5916 21.7776 98.6316 22.5929V23.8427H99.9222C101.921 23.8427 102.92 24.4465 102.92 25.654C102.92 26.5098 102.653 27.0578 102.114 27.2887C101.414 27.5484 100.668 27.6654 99.9222 27.6329H98.6135V41.5302C98.6728 42.3906 98.4042 43.2416 97.8618 43.9121C97.6193 44.1681 97.3273 44.372 97.0034 44.5113C96.6795 44.6506 96.3306 44.7225 95.978 44.7225C95.6255 44.7225 95.2766 44.6506 94.9527 44.5113C94.6288 44.372 94.3367 44.1681 94.0943 43.9121C93.5639 43.236 93.3025 42.3875 93.3607 41.5302V27.6193H91.9207C91.2747 27.6615 90.6343 27.4773 90.1094 27.0985C89.9058 26.9315 89.7429 26.7204 89.6331 26.4811C89.5232 26.2418 89.4693 25.9806 89.4754 25.7174C89.4754 24.4585 90.3539 23.8291 92.1109 23.8291ZM109.912 45.3747L110.392 44.2019L103.93 27.9272C103.613 27.2881 103.411 26.5984 103.332 25.8895C103.329 25.4491 103.448 25.0164 103.676 24.6397C103.909 24.2622 104.235 23.9505 104.623 23.734C105.007 23.5089 105.445 23.3887 105.89 23.3853C106.213 23.3635 106.537 23.4186 106.835 23.5462C107.132 23.6737 107.395 23.87 107.602 24.1189C108.061 24.7385 108.406 25.4346 108.621 26.1748L113.063 39.1031L117.279 27.0804C117.536 26.2995 117.838 25.5344 118.185 24.7891C118.368 24.3522 118.66 23.9689 119.032 23.6751C119.427 23.4622 119.874 23.362 120.322 23.3853C120.725 23.3861 121.119 23.5007 121.459 23.7159C121.817 23.9067 122.11 24.1999 122.301 24.5582C122.503 24.9027 122.61 25.2952 122.609 25.6948C122.559 25.9393 122.478 26.2834 122.36 26.7363C122.242 27.1959 122.102 27.6493 121.939 28.0948L115.087 46.0223C114.636 47.3144 114.056 48.5582 113.358 49.7355C112.809 50.6191 112.025 51.3324 111.094 51.7959C109.919 52.3334 108.634 52.5834 107.344 52.5249C106.168 52.5817 104.992 52.4126 103.88 52.0268C103.593 51.8866 103.343 51.6814 103.149 51.4275C102.955 51.1737 102.823 50.8781 102.763 50.5643C102.703 50.2505 102.717 49.9271 102.804 49.6198C102.891 49.3124 103.049 49.0295 103.264 48.7936C103.733 48.4421 104.314 48.2717 104.899 48.3136C105.179 48.3124 105.458 48.3505 105.727 48.4268C106.011 48.4979 106.301 48.5374 106.592 48.5446C107.081 48.5679 107.569 48.4748 108.014 48.2729C108.399 48.05 108.712 47.7236 108.92 47.331C109.306 46.7085 109.638 46.054 109.912 45.3747Z" fill="#2A2A2A"/>
<path d="M34.932 12.7528C38.3222 12.7528 41.2324 13.4457 43.6626 14.8313C46.0741 16.1723 48.0093 18.2294 49.2007 20.7181C50.5072 23.5115 51.1489 26.5695 51.0754 29.6525C51.1059 31.9931 50.7588 34.3234 50.0475 36.5536C49.4091 38.5426 48.3601 40.3754 46.9683 41.9332C45.5756 43.467 43.8477 44.6587 41.9192 45.4155C37.4852 47.0397 32.6189 47.0397 28.1849 45.4155C26.2515 44.6386 24.5192 43.4342 23.1177 41.8925C21.7219 40.3161 20.6714 38.4651 20.0339 36.4585C19.3342 34.2412 18.9873 31.9277 19.006 29.6026C18.98 27.2514 19.3426 24.912 20.0792 22.6789C20.7426 20.6917 21.8147 18.8653 23.2264 17.3174C24.6188 15.8313 26.3294 14.6795 28.2302 13.9483C30.367 13.1243 32.6421 12.7185 34.932 12.7528ZM44.3554 29.5936C44.4048 27.4583 44.0085 25.3362 43.1917 23.3626C42.5187 21.7273 41.3581 20.339 39.8679 19.3868C38.3881 18.4673 36.6739 17.9955 34.932 18.0283C33.6632 18.0164 32.4065 18.2758 31.246 18.7891C30.1269 19.2812 29.1343 20.0214 28.3434 20.9536C27.4692 22.0369 26.8168 23.2817 26.4234 24.617C25.9413 26.2327 25.7077 27.9122 25.7305 29.5981C25.7085 31.3063 25.942 33.0081 26.4234 34.6472C26.8271 36.0193 27.5032 37.2961 28.4113 38.4011C29.2194 39.3456 30.226 40.1001 31.3592 40.6109C32.6926 41.1773 34.1399 41.4243 35.5857 41.3323C37.0315 41.2403 38.4358 40.8119 39.6868 40.0811C41.1918 39.1463 42.3764 37.7753 43.083 36.1506C43.9911 34.0872 44.4258 31.8468 44.3554 29.5936Z" fill="#2A2A2A"/>
<path d="M44.3509 22.9551C47.477 22.9551 50.0113 20.4209 50.0113 17.2947C50.0113 14.1686 47.477 11.6344 44.3509 11.6344C41.2248 11.6344 38.6905 14.1686 38.6905 17.2947C38.6905 20.4209 41.2248 22.9551 44.3509 22.9551Z" fill="#2A2A2A"/>
<path d="M44.3509 23.8608C47.9772 23.8608 50.9169 20.9211 50.9169 17.2947C50.9169 13.6684 47.9772 10.7287 44.3509 10.7287C40.7246 10.7287 37.7849 13.6684 37.7849 17.2947C37.7849 20.9211 40.7246 23.8608 44.3509 23.8608Z" fill="#2A2A2A"/>
</svg>
